<svg version="1.1" xmlns="http://www.w3.org/2000/svg" viewBox="0 0 938.9999847412109 706.6665649414062" width="938.9999847412109" height="706.6665649414062">
  <!-- svg-source:excalidraw -->
  
  <defs>
    <style class="style-fonts">
      @font-face {
        font-family: "Virgil";
        src: url("https://excalidraw.com/Virgil.woff2");
      }
      @font-face {
        font-family: "Cascadia";
        src: url("https://excalidraw.com/Cascadia.woff2");
      }
      @font-face {
        font-family: "Assistant";
        src: url("https://excalidraw.com/Assistant-Regular.woff2");
      }
    </style>
    
  </defs>
  <rect x="0" y="0" width="938.9999847412109" height="706.6665649414062" fill="#ffffff"></rect><g stroke-linecap="round" transform="translate(10 12.333221435546875) rotate(0 457.66677856445307 341.33331298828125)"><path d="M0 0 C211.75 0, 423.5 0, 915.33 0 M0 0 C230.25 0, 460.5 0, 915.33 0 M915.33 0 C915.33 267.4, 915.33 534.81, 915.33 682.67 M915.33 0 C915.33 216.84, 915.33 433.67, 915.33 682.67 M915.33 682.67 C609.37 682.67, 303.41 682.67, 0 682.67 M915.33 682.67 C725.05 682.67, 534.76 682.67, 0 682.67 M0 682.67 C0 471.72, 0 260.77, 0 0 M0 682.67 C0 537.87, 0 393.07, 0 0" stroke="#1e1e1e" stroke-width="1" fill="none"></path></g><g stroke-linecap="round" transform="translate(13.666671752929688 10) rotate(0 113.33334350585938 113.33334350585938)"><path d="M0 0 C55.09 0, 110.18 0, 226.67 0 M0 0 C59.92 0, 119.85 0, 226.67 0 M226.67 0 C226.67 77.3, 226.67 154.59, 226.67 226.67 M226.67 0 C226.67 72.9, 226.67 145.8, 226.67 226.67 M226.67 226.67 C167.53 226.67, 108.4 226.67, 0 226.67 M226.67 226.67 C137.31 226.67, 47.96 226.67, 0 226.67 M0 226.67 C0 173.67, 0 120.66, 0 0 M0 226.67 C0 177.39, 0 128.12, 0 0" stroke="#1e1e1e" stroke-width="1" fill="none"></path></g><g transform="translate(116.00489807128906 102.63334350585939) rotate(0 10.9951171875 20.69999999999999)"><text x="10.9951171875" y="0" font-family="Helvetica, Segoe UI Emoji" font-size="36px" fill="#1e1e1e" text-anchor="middle" style="white-space: pre;" direction="ltr" dominant-baseline="text-before-edge">T</text></g><g stroke-linecap="round" transform="translate(13.666641235351562 238.33331298828125) rotate(0 113.33334350585938 113.33334350585938)"><path d="M0 0 C68.81 0, 137.63 0, 226.67 0 M0 0 C47.2 0, 94.39 0, 226.67 0 M226.67 0 C226.67 68.41, 226.67 136.82, 226.67 226.67 M226.67 0 C226.67 87.21, 226.67 174.42, 226.67 226.67 M226.67 226.67 C172.21 226.67, 117.75 226.67, 0 226.67 M226.67 226.67 C179.88 226.67, 133.09 226.67, 0 226.67 M0 226.67 C0 176.38, 0 126.09, 0 0 M0 226.67 C0 155.68, 0 84.69, 0 0" stroke="#1e1e1e" stroke-width="1" fill="none"></path></g><g transform="translate(114.00096130371094 330.96665649414064) rotate(0 12.9990234375 20.7)"><text x="12.9990234375" y="0" font-family="Helvetica, Segoe UI Emoji" font-size="36px" fill="#1e1e1e" text-anchor="middle" style="white-space: pre;" direction="ltr" dominant-baseline="text-before-edge">R</text></g><g stroke-linecap="round" transform="translate(13.000015258789062 467.99993896484375) rotate(0 113.33334350585938 113.33334350585938)"><path d="M0 0 C50.19 0, 100.39 0, 226.67 0 M0 0 C50.55 0, 101.1 0, 226.67 0 M226.67 0 C226.67 66.74, 226.67 133.49, 226.67 226.67 M226.67 0 C226.67 80.15, 226.67 160.3, 226.67 226.67 M226.67 226.67 C176.65 226.67, 126.63 226.67, 0 226.67 M226.67 226.67 C152.91 226.67, 79.15 226.67, 0 226.67 M0 226.67 C0 163.67, 0 100.68, 0 0 M0 226.67 C0 151.86, 0 77.05, 0 0" stroke="#1e1e1e" stroke-width="1" fill="none"></path></g><g transform="translate(115.33824157714844 560.6332824707031) rotate(0 10.9951171875 20.700000000000003)"><text x="10.9951171875" y="0" font-family="Helvetica, Segoe UI Emoji" font-size="36px" fill="#1e1e1e" text-anchor="middle" style="white-space: pre;" direction="ltr" dominant-baseline="text-before-edge">T</text></g><g stroke-linecap="round" transform="translate(242.0000457763672 11.99993896484375) rotate(0 113.33334350585938 113.33334350585938)"><path d="M0 0 C60.62 0, 121.24 0, 226.67 0 M0 0 C64.21 0, 128.41 0, 226.67 0 M226.67 0 C226.67 62.99, 226.67 125.98, 226.67 226.67 M226.67 0 C226.67 57.57, 226.67 115.14, 226.67 226.67 M226.67 226.67 C148.86 226.67, 71.05 226.67, 0 226.67 M226.67 226.67 C140.44 226.67, 54.22 226.67, 0 226.67 M0 226.67 C0 172.41, 0 118.15, 0 0 M0 226.67 C0 142.55, 0 58.43, 0 0" stroke="#1e1e1e" stroke-width="1" fill="none"></path></g><g transform="translate(342.33436584472656 104.63328247070314) rotate(0 12.9990234375 20.69999999999999)"><text x="12.9990234375" y="0" font-family="Helvetica, Segoe UI Emoji" font-size="36px" fill="#1e1e1e" text-anchor="middle" style="white-space: pre;" direction="ltr" dominant-baseline="text-before-edge">R</text></g><g stroke-linecap="round" transform="translate(242.00001525878906 240.333251953125) rotate(0 113.33334350585938 113.33334350585938)"><path d="M0 0 C49.28 0, 98.57 0, 226.67 0 M0 0 C82.85 0, 165.7 0, 226.67 0 M226.67 0 C226.67 53.97, 226.67 107.94, 226.67 226.67 M226.67 0 C226.67 53.08, 226.67 106.17, 226.67 226.67 M226.67 226.67 C163.7 226.67, 100.72 226.67, 0 226.67 M226.67 226.67 C144.09 226.67, 61.52 226.67, 0 226.67 M0 226.67 C0 154.77, 0 82.87, 0 0 M0 226.67 C0 168.16, 0 109.66, 0 0" stroke="#1e1e1e" stroke-width="1" fill="none"></path></g><g transform="translate(341.33238220214844 332.9665954589844) rotate(0 14.0009765625 20.7)"><text x="14.0009765625" y="0" font-family="Helvetica, Segoe UI Emoji" font-size="36px" fill="#1e1e1e" text-anchor="middle" style="white-space: pre;" direction="ltr" dominant-baseline="text-before-edge">Q</text></g><g stroke-linecap="round" transform="translate(241.33338928222656 469.9998779296875) rotate(0 113.33334350585938 113.33334350585938)"><path d="M0 0 C67.6 0, 135.2 0, 226.67 0 M0 0 C53.71 0, 107.41 0, 226.67 0 M226.67 0 C226.67 57.69, 226.67 115.37, 226.67 226.67 M226.67 0 C226.67 52.62, 226.67 105.24, 226.67 226.67 M226.67 226.67 C167.67 226.67, 108.68 226.67, 0 226.67 M226.67 226.67 C137.75 226.67, 48.83 226.67, 0 226.67 M0 226.67 C0 147.83, 0 69, 0 0 M0 226.67 C0 177.62, 0 128.58, 0 0" stroke="#1e1e1e" stroke-width="1" fill="none"></path></g><g transform="translate(343.67161560058594 562.6332214355468) rotate(0 10.9951171875 20.700000000000003)"><text x="10.9951171875" y="0" font-family="Helvetica, Segoe UI Emoji" font-size="36px" fill="#1e1e1e" text-anchor="middle" style="white-space: pre;" direction="ltr" dominant-baseline="text-before-edge">T</text></g><g stroke-linecap="round" transform="translate(475.0000457763672 11.6666259765625) rotate(0 113.33334350585938 113.33334350585938)"><path d="M0 0 C76.15 0, 152.3 0, 226.67 0 M0 0 C59.65 0, 119.3 0, 226.67 0 M226.67 0 C226.67 61.27, 226.67 122.54, 226.67 226.67 M226.67 0 C226.67 84.14, 226.67 168.28, 226.67 226.67 M226.67 226.67 C137.79 226.67, 48.91 226.67, 0 226.67 M226.67 226.67 C168.62 226.67, 110.57 226.67, 0 226.67 M0 226.67 C0 153.28, 0 79.89, 0 0 M0 226.67 C0 179.18, 0 131.69, 0 0" stroke="#1e1e1e" stroke-width="1" fill="none"></path></g><g transform="translate(577.3382720947266 104.29996948242189) rotate(0 10.9951171875 20.69999999999999)"><text x="10.9951171875" y="0" font-family="Helvetica, Segoe UI Emoji" font-size="36px" fill="#1e1e1e" text-anchor="middle" style="white-space: pre;" direction="ltr" dominant-baseline="text-before-edge">T</text></g><g stroke-linecap="round" transform="translate(475.00001525878906 239.99993896484375) rotate(0 113.33334350585938 113.33334350585938)"><path d="M0 0 C68.51 0, 137.01 0, 226.67 0 M0 0 C66.48 0, 132.96 0, 226.67 0 M226.67 0 C226.67 71.71, 226.67 143.43, 226.67 226.67 M226.67 0 C226.67 84.62, 226.67 169.24, 226.67 226.67 M226.67 226.67 C139.46 226.67, 52.24 226.67, 0 226.67 M226.67 226.67 C177.68 226.67, 128.7 226.67, 0 226.67 M0 226.67 C0 171.38, 0 116.09, 0 0 M0 226.67 C0 170.55, 0 114.43, 0 0" stroke="#1e1e1e" stroke-width="1" fill="none"></path></g><g transform="translate(575.3343353271484 332.63328247070314) rotate(0 12.9990234375 20.7)"><text x="12.9990234375" y="0" font-family="Helvetica, Segoe UI Emoji" font-size="36px" fill="#1e1e1e" text-anchor="middle" style="white-space: pre;" direction="ltr" dominant-baseline="text-before-edge">R</text></g><g stroke-linecap="round" transform="translate(474.33338928222656 469.66656494140625) rotate(0 113.33334350585938 113.33334350585938)"><path d="M0 0 C79.79 0, 159.58 0, 226.67 0 M0 0 C63.11 0, 126.21 0, 226.67 0 M226.67 0 C226.67 56.84, 226.67 113.67, 226.67 226.67 M226.67 0 C226.67 87.11, 226.67 174.21, 226.67 226.67 M226.67 226.67 C169.45 226.67, 112.24 226.67, 0 226.67 M226.67 226.67 C165.25 226.67, 103.84 226.67, 0 226.67 M0 226.67 C0 146.29, 0 65.91, 0 0 M0 226.67 C0 180.94, 0 135.2, 0 0" stroke="#1e1e1e" stroke-width="1" fill="none"></path></g><g transform="translate(574.6677093505859 562.2999084472656) rotate(0 12.9990234375 20.700000000000003)"><text x="12.9990234375" y="0" font-family="Helvetica, Segoe UI Emoji" font-size="36px" fill="#1e1e1e" text-anchor="middle" style="white-space: pre;" direction="ltr" dominant-baseline="text-before-edge">R</text></g><g stroke-linecap="round" transform="translate(702.3332977294922 11.99993896484375) rotate(0 113.33334350585938 113.33334350585938)"><path d="M0 0 C50.34 0, 100.67 0, 226.67 0 M0 0 C76.12 0, 152.24 0, 226.67 0 M226.67 0 C226.67 52.65, 226.67 105.31, 226.67 226.67 M226.67 0 C226.67 49.47, 226.67 98.94, 226.67 226.67 M226.67 226.67 C180.8 226.67, 134.94 226.67, 0 226.67 M226.67 226.67 C167.25 226.67, 107.83 226.67, 0 226.67 M0 226.67 C0 160.61, 0 94.56, 0 0 M0 226.67 C0 156.79, 0 86.92, 0 0" stroke="#1e1e1e" stroke-width="1" fill="none"></path></g><g transform="translate(804.6715240478516 104.63328247070314) rotate(0 10.9951171875 20.69999999999999)"><text x="10.9951171875" y="0" font-family="Helvetica, Segoe UI Emoji" font-size="36px" fill="#1e1e1e" text-anchor="middle" style="white-space: pre;" direction="ltr" dominant-baseline="text-before-edge">T</text></g><g stroke-linecap="round" transform="translate(702.3332672119141 240.333251953125) rotate(0 113.33334350585938 113.33334350585938)"><path d="M0 0 C58.06 0, 116.12 0, 226.67 0 M0 0 C67.47 0, 134.94 0, 226.67 0 M226.67 0 C226.67 56.63, 226.67 113.27, 226.67 226.67 M226.67 0 C226.67 86.33, 226.67 172.66, 226.67 226.67 M226.67 226.67 C176.08 226.67, 125.49 226.67, 0 226.67 M226.67 226.67 C150.74 226.67, 74.82 226.67, 0 226.67 M0 226.67 C0 165.15, 0 103.64, 0 0 M0 226.67 C0 144.35, 0 62.04, 0 0" stroke="#1e1e1e" stroke-width="1" fill="none"></path></g><g transform="translate(801.6656341552734 332.9665954589844) rotate(0 14.0009765625 20.7)"><text x="14.0009765625" y="0" font-family="Helvetica, Segoe UI Emoji" font-size="36px" fill="#1e1e1e" text-anchor="middle" style="white-space: pre;" direction="ltr" dominant-baseline="text-before-edge">Q</text></g><g stroke-linecap="round" transform="translate(701.6666412353516 469.9998779296875) rotate(0 113.33334350585938 113.33334350585938)"><path d="M0 0 C84.74 0, 169.49 0, 226.67 0 M0 0 C59.91 0, 119.82 0, 226.67 0 M226.67 0 C226.67 49.69, 226.67 99.38, 226.67 226.67 M226.67 0 C226.67 90.6, 226.67 181.19, 226.67 226.67 M226.67 226.67 C147.55 226.67, 68.42 226.67, 0 226.67 M226.67 226.67 C137.27 226.67, 47.87 226.67, 0 226.67 M0 226.67 C0 171.92, 0 117.17, 0 0 M0 226.67 C0 177.43, 0 128.19, 0 0" stroke="#1e1e1e" stroke-width="1" fill="none"></path></g><g transform="translate(804.0048675537109 562.6332214355468) rotate(0 10.9951171875 20.700000000000003)"><text x="10.9951171875" y="0" font-family="Helvetica, Segoe UI Emoji" font-size="36px" fill="#1e1e1e" text-anchor="middle" style="white-space: pre;" direction="ltr" dominant-baseline="text-before-edge">T</text></g></svg>